{
  "source": "C:\\Users\\Peter\\Desktop\\stuff\\MIUN\\quantitative_research\\video_compression\\videos\\BVI-HD\\BVI-HD_CDVL_videos\\ORIG\\PlasmaSlowRandom_1920x1080_60fps.mp4",
  "output": "C:\\Users\\Peter\\Desktop\\stuff\\MIUN\\quantitative_research\\video_compression\\compressed_videos\\BVI-HD\\av1\\1\\PlasmaSlowRandom_1920x1080_60fps_av1.mkv",
  "codec": "av1",
  "ok": "Input #0, mov,mp4,m4a,3gp,3g2,mj2, from 'C:\\Users\\Peter\\Desktop\\stuff\\MIUN\\quantitative_research\\video_compression\\videos\\BVI-HD\\BVI-HD_CDVL_videos\\ORIG\\PlasmaSlowRandom_1920x1080_60fps.mp4':\n  Metadata:\n    major_brand     : isom\n    minor_version   : 512\n    compatible_brands: isomiso2avc1mp41\n    encoder         : Lavf54.28.101\n  Duration: 00:00:05.00, start: 0.000000, bitrate: 23030 kb/s\n  Stream #0:0[0x1](und): Video: h264 (High 4:4:4 Predictive) (avc1 / 0x31637661), yuv420p(progressive), 1920x1080, 23026 kb/s, 60 fps, 60 tbr, 60 tbn (default)\n    Metadata:\n      handler_name    : VideoHandler\n      vendor_id       : [0][0][0][0]\n[out#0/matroska @ 000001fab9bb4d00] Codec AVOption b:a (set bitrate (in bits/s)) has not been used for any stream. The most likely reason is either wrong type (e.g. a video option with no video streams) or that it is a private option of some decoder which was not actually used for any stream.\nStream mapping:\n  Stream #0:0 -> #0:0 (h264 (native) -> av1 (libsvtav1))\nPress [q] to stop, [?] for help\nSvt[info]: -------------------------------------------\nSvt[info]: SVT [version]:\tSVT-AV1 Encoder Lib v3.1.0-19-g6ecfe8ec\nSvt[info]: SVT [build]  :\tGCC 15.2.0\t 64 bit\nSvt[info]: LIB Build date: Aug 17 2025 11:37:13\nSvt[info]: -------------------------------------------\nSvt[info]: Level of Parallelism: 5\nSvt[info]: Number of PPCS 93\nSvt[info]: [asm level on system : up to avx2]\nSvt[info]: [asm level selected : up to avx2]\nSvt[info]: -------------------------------------------\nSvt[info]: SVT [config]: main profile\ttier (auto)\tlevel (auto)\nSvt[info]: SVT [config]: width / height / fps numerator / fps denominator \t\t: 1920 / 1080 / 60 / 1\nSvt[info]: SVT [config]: bit-depth / color format \t\t\t\t\t: 8 / YUV420\nSvt[info]: SVT [config]: preset / tune / pred struct \t\t\t\t\t: 4 / PSNR / random access\nSvt[info]: SVT [config]: gop size / mini-gop size / key-frame type \t\t\t: 321 / 16 / key frame\nSvt[info]: SVT [config]: BRC mode / target bitrate (kbps)\t\t\t\t: VBR / 1000 \nSvt[info]: SVT [config]: AQ mode / Variance Boost \t\t\t\t\t: 2 / 0\nSvt[info]: SVT [config]: sharpness / luminance-based QP bias \t\t\t\t: 0 / 0\nSvt[info]: SVT [config]: QP scale compress strength \t\t\t\t\t: 0\nSvt[info]: -------------------------------------------\nOutput #0, matroska, to 'C:\\Users\\Peter\\Desktop\\stuff\\MIUN\\quantitative_research\\video_compression\\compressed_videos\\BVI-HD\\av1\\1\\PlasmaSlowRandom_1920x1080_60fps_av1.mkv':\n  Metadata:\n    major_brand     : isom\n    minor_version   : 512\n    compatible_brands: isomiso2avc1mp41\n    encoder         : Lavf62.3.100\n  Stream #0:0(und): Video: av1 (AV01 / 0x31305641), yuv420p(tv, progressive), 1920x1080, q=2-31, 1000 kb/s, 60 fps, 1k tbn (default)\n    Metadata:\n      encoder         : Lavc62.11.100 libsvtav1\n      handler_name    : VideoHandler\n      vendor_id       : [0][0][0][0]\n    Side data:\n      cpb: bitrate max/min/avg: 0/0/1000000 buffer size: 1000000 vbv_delay: N/A\nframe=    0 fps=0.0 q=0.0 size=       0KiB time=N/A bitrate=N/A speed=N/A elapsed=0:00:00.52    \nframe=    0 fps=0.0 q=0.0 size=       0KiB time=N/A bitrate=N/A speed=N/A elapsed=0:00:01.20    \nframe=    0 fps=0.0 q=0.0 size=       0KiB time=N/A bitrate=N/A speed=N/A elapsed=0:00:01.73    \nframe=    1 fps=0.4 q=25.0 size=       1KiB time=00:00:00.00 bitrate=N/A speed=   0x elapsed=0:00:02.26    \nframe=    1 fps=0.4 q=25.0 size=       1KiB time=00:00:00.00 bitrate=N/A speed=   0x elapsed=0:00:02.78    \nframe=    6 fps=1.8 q=37.0 size=       1KiB time=00:00:00.08 bitrate=  68.4kbits/s speed=0.0252x elapsed=0:00:03.30    \nframe=   11 fps=2.9 q=33.0 size=       1KiB time=00:00:00.16 bitrate=  34.2kbits/s speed=0.0436x elapsed=0:00:03.82    \nframe=   18 fps=4.2 q=30.0 size=       1KiB time=00:00:00.28 bitrate=  20.1kbits/s speed=0.0654x elapsed=0:00:04.33    \nframe=   22 fps=4.5 q=30.0 size=       1KiB time=00:00:00.35 bitrate=  16.3kbits/s speed=0.0722x elapsed=0:00:04.84    \nframe=   25 fps=4.7 q=30.0 size=       1KiB time=00:00:00.40 bitrate=  14.2kbits/s speed=0.0746x elapsed=0:00:05.36    \nframe=   32 fps=5.4 q=30.0 size=       1KiB time=00:00:00.51 bitrate=  11.0kbits/s speed=0.0879x elapsed=0:00:05.88    \nframe=   38 fps=5.9 q=31.0 size=       1KiB time=00:00:00.61 bitrate=   9.2kbits/s speed=0.0964x elapsed=0:00:06.40    \nframe=   42 fps=6.1 q=31.0 size=       1KiB time=00:00:00.68 bitrate=   8.3kbits/s speed=0.0987x elapsed=0:00:06.92    \nframe=   49 fps=6.5 q=22.0 size=       1KiB time=00:00:00.80 bitrate=   7.1kbits/s speed=0.107x elapsed=0:00:07.48    \nframe=   54 fps=6.7 q=31.0 size=       1KiB time=00:00:00.88 bitrate=   6.4kbits/s speed=0.11x elapsed=0:00:08.04    \nframe=   59 fps=6.9 q=33.0 size=       1KiB time=00:00:00.96 bitrate=   5.9kbits/s speed=0.113x elapsed=0:00:08.58    \nframe=   67 fps=7.4 q=33.0 size=       1KiB time=00:00:01.10 bitrate=   5.2kbits/s speed=0.121x elapsed=0:00:09.10    \nframe=   71 fps=7.4 q=33.0 size=       1KiB time=00:00:01.16 bitrate=   4.9kbits/s speed=0.121x elapsed=0:00:09.60    \nframe=   76 fps=7.5 q=32.0 size=       1KiB time=00:00:01.25 bitrate=   4.6kbits/s speed=0.123x elapsed=0:00:10.13    \nframe=   83 fps=7.8 q=33.0 size=       1KiB time=00:00:01.36 bitrate=   4.2kbits/s speed=0.128x elapsed=0:00:10.64    \nframe=   88 fps=7.9 q=30.0 size=       1KiB time=00:00:01.45 bitrate=   3.9kbits/s speed=0.13x elapsed=0:00:11.17    \nframe=   95 fps=8.1 q=32.0 size=       1KiB time=00:00:01.56 bitrate=   3.6kbits/s speed=0.134x elapsed=0:00:11.69    \nframe=  101 fps=8.3 q=31.0 size=       1KiB time=00:00:01.66 bitrate=   3.4kbits/s speed=0.137x elapsed=0:00:12.20    \nframe=  106 fps=8.3 q=36.0 size=       1KiB time=00:00:01.75 bitrate=   3.3kbits/s speed=0.138x elapsed=0:00:12.72    \nframe=  113 fps=8.5 q=20.0 size=       1KiB time=00:00:01.86 bitrate=   3.1kbits/s speed=0.141x elapsed=0:00:13.25    \nframe=  118 fps=8.6 q=34.0 size=       1KiB time=00:00:01.93 bitrate=   2.9kbits/s speed=0.14x elapsed=0:00:13.77    \nframe=  122 fps=8.5 q=37.0 size=       1KiB time=00:00:02.01 bitrate=   2.8kbits/s speed=0.141x elapsed=0:00:14.31    \nframe=  129 fps=8.7 q=20.0 size=       1KiB time=00:00:02.13 bitrate=   2.7kbits/s speed=0.144x elapsed=0:00:14.83    \nframe=  134 fps=8.7 q=37.0 size=       1KiB time=00:00:02.21 bitrate=   2.6kbits/s speed=0.144x elapsed=0:00:15.38    \nframe=  142 fps=8.9 q=38.0 size=       1KiB time=00:00:02.35 bitrate=   2.4kbits/s speed=0.148x elapsed=0:00:15.91    \nframe=  149 fps=9.1 q=35.0 size=       1KiB time=00:00:02.46 bitrate=   2.3kbits/s speed=0.15x elapsed=0:00:16.43    \nframe=  154 fps=9.1 q=37.0 size=       1KiB time=00:00:02.55 bitrate=   2.2kbits/s speed=0.15x elapsed=0:00:16.95    \nframe=  162 fps=9.3 q=36.0 size=       1KiB time=00:00:02.68 bitrate=   2.1kbits/s speed=0.154x elapsed=0:00:17.47    \nframe=  167 fps=9.3 q=35.0 size=       1KiB time=00:00:02.76 bitrate=   2.1kbits/s speed=0.154x elapsed=0:00:17.98    \nframe=  175 fps=9.4 q=35.0 size=       1KiB time=00:00:02.90 bitrate=   2.0kbits/s speed=0.157x elapsed=0:00:18.51    \nframe=  182 fps=9.6 q=36.0 size=       1KiB time=00:00:03.01 bitrate=   1.9kbits/s speed=0.158x elapsed=0:00:19.03    \nframe=  188 fps=9.6 q=36.0 size=       1KiB time=00:00:03.11 bitrate=   1.8kbits/s speed=0.159x elapsed=0:00:19.56    \nframe=  196 fps=9.8 q=37.0 size=       1KiB time=00:00:03.25 bitrate=   1.8kbits/s speed=0.162x elapsed=0:00:20.08    \nframe=  205 fps= 10 q=33.0 size=       1KiB time=00:00:03.35 bitrate=   1.7kbits/s speed=0.163x elapsed=0:00:20.59    \nframe=  211 fps= 10 q=34.0 size=       1KiB time=00:00:03.50 bitrate=   1.6kbits/s speed=0.166x elapsed=0:00:21.13    \nframe=  217 fps= 10 q=33.0 size=       1KiB time=00:00:03.60 bitrate=   1.6kbits/s speed=0.166x elapsed=0:00:21.64    \nframe=  225 fps= 10 q=28.0 size=       1KiB time=00:00:03.73 bitrate=   1.5kbits/s speed=0.168x elapsed=0:00:22.16    \nframe=  233 fps= 10 q=31.0 size=       1KiB time=00:00:03.86 bitrate=   1.5kbits/s speed=0.17x elapsed=0:00:22.67    \nframe=  239 fps= 10 q=34.0 size=       1KiB time=00:00:03.96 bitrate=   1.4kbits/s speed=0.171x elapsed=0:00:23.20    \nframe=  249 fps= 10 q=31.0 size=       1KiB time=00:00:04.13 bitrate=   1.4kbits/s speed=0.174x elapsed=0:00:23.72    \nframe=  255 fps= 11 q=34.0 size=       1KiB time=00:00:04.23 bitrate=   1.3kbits/s speed=0.175x elapsed=0:00:24.23    \nframe=  265 fps= 11 q=31.0 size=       1KiB time=00:00:04.40 bitrate=   1.3kbits/s speed=0.178x elapsed=0:00:24.78    \nframe=  269 fps= 11 q=35.0 size=       1KiB time=00:00:04.46 bitrate=   1.3kbits/s speed=0.176x elapsed=0:00:25.31    \nframe=  281 fps= 11 q=35.0 size=       1KiB time=00:00:04.66 bitrate=   1.2kbits/s speed=0.181x elapsed=0:00:25.83    \nframe=  287 fps= 11 q=38.0 size=       1KiB time=00:00:04.76 bitrate=   1.2kbits/s speed=0.181x elapsed=0:00:26.35    \n[out#0/matroska @ 000001fab9bb4d00] video:590KiB audio:0KiB subtitle:0KiB other streams:0KiB global headers:0KiB muxing overhead: 0.348728%\nframe=  300 fps= 11 q=38.0 Lsize=     592KiB time=00:00:04.98 bitrate= 973.3kbits/s speed=0.188x elapsed=0:00:26.52    \n",
  "seconds": 26.996464490890503,
  "probe_out": {}
}